<svg width="17" height="18" viewBox="0 0 17 18" fill="none" xmlns="http://www.w3.org/2000/svg">
<path d="M12.7499 2.62491C12.7499 2.49477 12.7141 2.36715 12.6463 2.25604C12.5786 2.14494 12.4815 2.05464 12.3658 1.99507C12.2501 1.9355 12.1203 1.90896 11.9905 1.91835C11.8607 1.92775 11.736 1.97271 11.63 2.04832L7.04075 5.32649C6.92084 5.41206 6.77723 5.45811 6.62992 5.45824H2.12492C1.7492 5.45824 1.38886 5.60749 1.12318 5.87317C0.857507 6.13885 0.708252 6.49918 0.708252 6.87491V10.4166C0.708252 10.7084 0.798919 10.9818 0.954044 11.2099L2.41038 13.7316C3.19025 15.0831 4.03388 15.8204 4.96746 16.028C5.89325 16.2341 6.6965 15.87 7.26033 15.5442L7.47496 15.4209C7.63765 15.327 7.75635 15.1723 7.80497 14.9908C7.85359 14.8094 7.82814 14.6161 7.73421 14.4534L6.22121 11.8332H6.62921C6.77676 11.8332 6.92064 11.8793 7.04075 11.965L11.63 15.2432C11.736 15.3188 11.8607 15.3637 11.9905 15.3731C12.1203 15.3825 12.2501 15.356 12.3658 15.2964C12.4815 15.2368 12.5786 15.1465 12.6463 15.0354C12.7141 14.9243 12.7499 14.7967 12.7499 14.6666V12.526C12.2558 12.4816 11.7749 12.3426 11.3333 12.1166V13.2903L7.86454 10.8125C7.5041 10.555 7.07219 10.4166 6.62921 10.4166H2.132L2.12492 10.4045V6.87491H6.62992C7.07266 6.87476 7.5043 6.73633 7.86454 6.47895L11.3333 4.0012V5.17491C11.7749 4.94892 12.2558 4.80992 12.7499 4.76549V2.62491ZM3.63721 13.0232L2.95013 11.8332H4.60763L4.89521 12.368L4.90584 12.3879L6.14046 14.5263C5.82808 14.6581 5.54759 14.7055 5.27629 14.6453C4.89875 14.5617 4.32713 14.2182 3.63721 13.0232Z" fill="#1ED760"/>
<path d="M12.5424 10.9174C12.4088 11.0464 12.2299 11.1178 12.0441 11.1162C11.8584 11.1146 11.6808 11.0401 11.5494 10.9087C11.4181 10.7774 11.3436 10.5997 11.342 10.414C11.3404 10.2283 11.4118 10.0494 11.5408 9.91578L12.8108 8.64574L11.5408 7.3757C11.4118 7.2421 11.3404 7.06318 11.342 6.87746C11.3436 6.69173 11.4181 6.51407 11.5494 6.38274C11.6808 6.25141 11.8584 6.17692 12.0441 6.1753C12.2299 6.17369 12.4088 6.24509 12.5424 6.37411L13.8124 7.64416L15.0825 6.37411C15.1478 6.30646 15.226 6.2525 15.3124 6.21538C15.3988 6.17825 15.4917 6.15871 15.5858 6.1579C15.6799 6.15708 15.7731 6.175 15.8602 6.21062C15.9472 6.24623 16.0263 6.29883 16.0928 6.36533C16.1593 6.43184 16.2119 6.51093 16.2475 6.59798C16.2832 6.68503 16.3011 6.7783 16.3003 6.87236C16.2994 6.96641 16.2799 7.05936 16.2428 7.14578C16.2057 7.23219 16.1517 7.31036 16.084 7.3757L14.814 8.64574L16.084 9.91578C16.2131 10.0494 16.2845 10.2283 16.2829 10.414C16.2812 10.5997 16.2067 10.7774 16.0754 10.9087C15.9441 11.0401 15.7664 11.1146 15.5807 11.1162C15.395 11.1178 15.2161 11.0464 15.0825 10.9174L13.8124 9.64732L12.5424 10.9174Z" fill="#1ED760"/>
</svg>
