<svg width="17" height="18" viewBox="0 0 17 18" fill="none" xmlns="http://www.w3.org/2000/svg">
<path d="M8.49992 2.62492C7.66274 2.62492 6.83376 2.78981 6.06031 3.11019C5.28686 3.43056 4.58409 3.90014 3.99211 4.49211C3.40014 5.08409 2.93056 5.78686 2.61019 6.56031C2.28981 7.33376 2.12492 8.16274 2.12492 8.99992C2.12492 9.8371 2.28981 10.6661 2.61019 11.4395C2.93056 12.213 3.40014 12.9157 3.99211 13.5077C4.58409 14.0997 5.28686 14.5693 6.06031 14.8897C6.83376 15.21 7.66274 15.3749 8.49992 15.3749C10.1907 15.3749 11.8122 14.7033 13.0077 13.5077C14.2033 12.3122 14.8749 10.6907 14.8749 8.99992C14.8749 7.30916 14.2033 5.68766 13.0077 4.49211C11.8122 3.29657 10.1907 2.62492 8.49992 2.62492ZM0.708252 8.99992C0.708252 4.69679 4.19679 1.20825 8.49992 1.20825C12.803 1.20825 16.2916 4.69679 16.2916 8.99992C16.2916 13.303 12.803 16.7916 8.49992 16.7916C4.19679 16.7916 0.708252 13.303 0.708252 8.99992Z" fill="#1ED760"/>
<path d="M8.49992 4.78534C8.68778 4.78534 8.86795 4.85996 9.00079 4.9928C9.13362 5.12564 9.20825 5.30581 9.20825 5.49367V10.7963L10.4783 9.52621C10.5436 9.45856 10.6218 9.40459 10.7082 9.36747C10.7946 9.33035 10.8876 9.31081 10.9816 9.30999C11.0757 9.30917 11.169 9.3271 11.256 9.36271C11.3431 9.39833 11.4221 9.45092 11.4887 9.51743C11.5552 9.58394 11.6078 9.66302 11.6434 9.75008C11.679 9.83713 11.6969 9.9304 11.6961 10.0245C11.6953 10.1185 11.6757 10.2115 11.6386 10.2979C11.6015 10.3843 11.5475 10.4625 11.4799 10.5278L8.49992 13.5078L5.51996 10.5278C5.45231 10.4625 5.39834 10.3843 5.36122 10.2979C5.3241 10.2115 5.30456 10.1185 5.30374 10.0245C5.30292 9.9304 5.32085 9.83713 5.35646 9.75008C5.39208 9.66302 5.44467 9.58394 5.51118 9.51743C5.57769 9.45092 5.65677 9.39833 5.74383 9.36271C5.83088 9.3271 5.92415 9.30917 6.0182 9.30999C6.11225 9.31081 6.2052 9.33035 6.29162 9.36747C6.37804 9.40459 6.4562 9.45856 6.52154 9.52621L7.79158 10.7963V5.49367C7.79158 5.30581 7.86621 5.12564 7.99905 4.9928C8.13189 4.85996 8.31206 4.78534 8.49992 4.78534Z" fill="#1ED760"/>
</svg>
