<svg width="17" height="18" viewBox="0 0 17 18" fill="none" xmlns="http://www.w3.org/2000/svg">
<path d="M1.41675 16.0834V1.91675H2.83341V14.6667H15.5834V16.0834H1.41675Z" fill="#1ED760"/>
<path d="M14.511 2.71433C14.5923 2.75954 14.6639 2.82031 14.7217 2.89319C14.7795 2.96607 14.8224 3.04962 14.8479 3.13908C14.8735 3.22853 14.8811 3.32214 14.8705 3.41455C14.8598 3.50696 14.831 3.59637 14.7858 3.67766L10.9006 10.6604C10.8403 10.7692 10.7524 10.8601 10.6457 10.9241C10.5391 10.9881 10.4175 11.0228 10.2931 11.0249C10.1688 11.027 10.0461 10.9963 9.93737 10.9359C9.82865 10.8756 9.73774 10.7876 9.67379 10.681L7.84841 7.63796L5.59166 12.15C5.55188 12.2362 5.49521 12.3134 5.42501 12.3772C5.3548 12.441 5.2725 12.49 5.18298 12.5214C5.09346 12.5528 4.99855 12.5659 4.90387 12.5599C4.8092 12.5539 4.7167 12.529 4.63185 12.4865C4.547 12.4441 4.47154 12.3851 4.40994 12.3129C4.34834 12.2408 4.30186 12.157 4.27326 12.0666C4.24466 11.9761 4.23451 11.8809 4.24343 11.7864C4.25234 11.692 4.28014 11.6003 4.32516 11.5168L7.1585 5.85012C7.21528 5.73659 7.30152 5.6404 7.40821 5.57162C7.5149 5.50284 7.63811 5.46399 7.76495 5.45914C7.8918 5.45429 8.01762 5.48362 8.12925 5.54405C8.24088 5.60448 8.33421 5.6938 8.3995 5.80266L10.2582 8.90091L13.5477 2.98916C13.5929 2.90786 13.6536 2.83626 13.7265 2.77845C13.7994 2.72064 13.883 2.67775 13.9724 2.65223C14.0619 2.6267 14.1555 2.61905 14.2479 2.62971C14.3403 2.64037 14.4297 2.66912 14.511 2.71433Z" fill="#1ED760"/>
</svg>
