<svg width="17" height="18" viewBox="0 0 17 18" fill="none" xmlns="http://www.w3.org/2000/svg">
<path d="M7.79177 12.5418V12.5177C7.79177 11.8426 8.15161 11.2193 8.73598 10.8814L9.67877 10.3374C9.73834 10.303 9.78966 10.256 9.82916 10.1997C9.86866 10.1433 9.89538 10.079 9.90746 10.0113C9.91954 9.94359 9.91667 9.87404 9.89907 9.80753C9.88147 9.74102 9.84956 9.67916 9.80557 9.62627L9.64123 9.42935C9.3579 9.09147 9.16311 8.70402 9.13548 8.24147C9.12259 8.01758 9.14798 7.79312 9.21057 7.57777C9.27786 7.38085 9.37773 7.19952 9.51869 7.04652C9.6593 6.89313 9.83027 6.77065 10.0207 6.68687C10.2112 6.60308 10.417 6.55981 10.6251 6.55981C10.8332 6.55981 11.039 6.60308 11.2295 6.68687C11.4199 6.77065 11.5909 6.89313 11.7315 7.04652C11.8725 7.19952 11.9724 7.38085 12.0396 7.57777C12.085 7.71164 12.1303 7.98152 12.1147 8.24147C12.0871 8.70402 11.8923 9.09147 11.609 9.42935L11.4446 9.62627C11.4007 9.67916 11.3687 9.74102 11.3511 9.80753C11.3335 9.87404 11.3307 9.94359 11.3428 10.0113C11.3548 10.079 11.3816 10.1433 11.4211 10.1997C11.4606 10.256 11.5119 10.303 11.5714 10.3374L12.5135 10.8814C12.8008 11.0472 13.0394 11.2857 13.2052 11.5729C13.3711 11.8602 13.4584 12.186 13.4584 12.5177V12.5418H7.79177ZM4.25011 11.101V11.1251H6.68465C6.9708 10.5091 7.43972 9.99614 8.02765 9.65602L8.07865 9.62768C7.87012 9.22362 7.74851 8.78037 7.72165 8.32647C7.69827 7.92272 7.75494 7.46231 7.86969 7.12302C7.99655 6.74098 8.20187 6.38969 8.47248 6.09168C8.40342 5.90922 8.29843 5.74248 8.16373 5.60134C8.02904 5.4602 7.86739 5.34753 7.68836 5.27002C7.40126 5.14377 7.08183 5.11059 6.77491 5.17512C6.46799 5.23966 6.18897 5.39867 5.97702 5.62985C5.83607 5.78285 5.73619 5.96418 5.6689 6.1611C5.62357 6.29497 5.57894 6.56485 5.59382 6.82481C5.62144 7.28735 5.81623 7.67481 6.09957 8.01268L6.2639 8.2096C6.30789 8.26249 6.33981 8.32435 6.35741 8.39086C6.37501 8.45737 6.37787 8.52692 6.36579 8.59465C6.35372 8.66238 6.327 8.72666 6.2875 8.78298C6.248 8.83931 6.19667 8.88634 6.13711 8.92077L5.19502 9.46477C4.90774 9.63054 4.66917 9.86904 4.5033 10.1563C4.33743 10.4435 4.2501 10.7693 4.25011 11.101ZM9.59448 1.96635C9.64149 1.78452 9.75878 1.62881 9.92056 1.53344C10.0823 1.43807 10.2754 1.41085 10.4572 1.45777C13.1701 2.15902 15.3044 4.28331 16.0269 6.98489C16.0753 7.16646 16.0497 7.35984 15.9556 7.52251C15.8615 7.68517 15.7066 7.80378 15.525 7.85225C15.3434 7.90071 15.15 7.87507 14.9874 7.78095C14.8247 7.68684 14.7061 7.53196 14.6577 7.35039C14.3651 6.2618 13.7897 5.27005 12.9897 4.47593C12.1897 3.68181 11.1938 3.11361 10.1031 2.8291C9.92124 2.78209 9.76552 2.66481 9.67015 2.50302C9.57478 2.34123 9.54756 2.1482 9.59448 1.96635ZM1.47486 10.1476C1.65633 10.0992 1.84961 10.1248 2.0122 10.2188C2.17479 10.3129 2.29337 10.4676 2.34186 10.6491C2.63426 11.7378 3.20969 12.7297 4.00967 13.524C4.80965 14.3182 5.80565 14.8865 6.89644 15.1711C7.07469 15.2213 7.22619 15.3393 7.31848 15.4999C7.41078 15.6604 7.43653 15.8507 7.39022 16.03C7.34392 16.2093 7.22923 16.3634 7.07074 16.4591C6.91224 16.5549 6.72254 16.5848 6.54227 16.5424C5.20855 16.1951 3.99063 15.5007 3.01243 14.5299C2.03424 13.559 1.33068 12.3464 0.973357 11.0153C0.949266 10.9254 0.94313 10.8316 0.955299 10.7394C0.967468 10.6471 0.997704 10.5581 1.04428 10.4775C1.09085 10.3969 1.15285 10.3263 1.22674 10.2697C1.30062 10.2131 1.38493 10.1716 1.47486 10.1476Z" fill="#1ED760"/>
</svg>
