<svg width="17" height="18" viewBox="0 0 17 18" fill="none" xmlns="http://www.w3.org/2000/svg">
<path d="M8.49992 2.62492C7.66274 2.62492 6.83376 2.78981 6.06031 3.11019C5.28686 3.43056 4.58409 3.90014 3.99211 4.49211C3.40014 5.08409 2.93056 5.78686 2.61019 6.56031C2.28981 7.33376 2.12492 8.16274 2.12492 8.99992C2.12492 9.8371 2.28981 10.6661 2.61019 11.4395C2.93056 12.213 3.40014 12.9157 3.99211 13.5077C4.58409 14.0997 5.28686 14.5693 6.06031 14.8897C6.83376 15.21 7.66274 15.3749 8.49992 15.3749C10.1907 15.3749 11.8122 14.7033 13.0077 13.5077C14.2033 12.3122 14.8749 10.6907 14.8749 8.99992C14.8749 7.30916 14.2033 5.68766 13.0077 4.49211C11.8122 3.29657 10.1907 2.62492 8.49992 2.62492ZM0.708252 8.99992C0.708252 4.69679 4.19679 1.20825 8.49992 1.20825C12.803 1.20825 16.2916 4.69679 16.2916 8.99992C16.2916 13.303 12.803 16.7916 8.49992 16.7916C4.19679 16.7916 0.708252 13.303 0.708252 8.99992Z" fill="#1ED760"/>
<path d="M11.9785 9.30663C12.0324 9.27554 12.0771 9.23083 12.1082 9.17699C12.1392 9.12316 12.1556 9.06208 12.1556 8.99992C12.1556 8.93775 12.1392 8.87668 12.1082 8.82284C12.0771 8.769 12.0324 8.7243 11.9785 8.69321L6.90617 5.76496C6.85233 5.73388 6.79126 5.71751 6.72909 5.71751C6.66692 5.71751 6.60585 5.73387 6.55201 5.76496C6.49817 5.79604 6.45346 5.84075 6.42237 5.89459C6.39129 5.94843 6.37492 6.0095 6.37492 6.07167V11.9282C6.37492 11.9903 6.39129 12.0514 6.42237 12.1052C6.45346 12.1591 6.49817 12.2038 6.55201 12.2349C6.60585 12.266 6.66692 12.2823 6.72909 12.2823C6.79126 12.2823 6.85233 12.266 6.90617 12.2349L11.9785 9.30663Z" fill="#1ED760"/>
</svg>
